<svg xmlns="http://www.w3.org/2000/svg" viewBox="0 0 128 128">
  <circle cx="64" cy="64" r="60" fill="#0f172a" />
  <path d="M64 8 A56 56 0 0 1 112.5 36.3 L64 64 Z" fill="#60a5fa" />
  <path d="M112.5 36.3 A56 56 0 0 1 112.5 91.7 L64 64 Z" fill="#3b82f6" />
  <path d="M112.5 91.7 A56 56 0 0 1 64 120 L64 64 Z" fill="#2563eb" />
  <path d="M64 120 A56 56 0 0 1 15.5 91.7 L64 64 Z" fill="#1d4ed8" />
  <path d="M15.5 91.7 A56 56 0 0 1 15.5 36.3 L64 64 Z" fill="#1e40af" />
  <path d="M15.5 36.3 A56 56 0 0 1 64 8 L64 64 Z" fill="#93c5fd" />
  <circle cx="64" cy="64" r="16" fill="#0f172a" />
  <circle cx="64" cy="64" r="6" fill="#e2e8f0" />
  <path d="M64 0 L54 18 L74 18 Z" fill="#ffffff" />
</svg>